# xmcd
#
# Track frame offsets: 
#        150
#        8030
#        14467
#        20302
#        34470
#        37782
#        52582
#        58682
#        69207
#        74942
#        80229
#        86840
#        92720
#        98315
#        108465
#        118777
#        133032
#        141240
#        147787
#        153677
#        162182
#        168530
#        182602
#        199425
#        211637
#        216210
#        222562
#        226690
#        233877
#        243460
#        254115
#        262337
#        267040
#        281865
#        293837
#        302242
#        313347
#
# Disc length: 4304 seconds
#
# Revision: 0
# Processed by: cddbd v1.5.2PL0 Copyright (c) Steve Scherf et al.
# Submitted via: ExactAudioCopy v1.0b3
#
DISCID=3210ce25
DTITLE=Polskie Radio - Muzyka Zrodel - 24 - Kolędy i pastorałki
DYEAR=2006
DGENRE=Folk
TTITLE0=Wśród nocnej ciszy
TTITLE1=Dobrze ześ się Jezu
TTITLE2=Przybieżeli do Betlejem
TTITLE3=Narodził się Jezus
TTITLE4=Dziecina mała
TTITLE5=Narodził się w stajni
TTITLE6=Pod polaną szałasy
TTITLE7=Z tamtej strony dwora
TTITLE8=A co to w niebie tam tak zagrzmiało
TTITLE9=W dzień Bożego Narodzenia
TTITLE10=Z Narodzenia Pana
TTITLE11=Mam ja skarb, mam
TTITLE12=Paśli pastyrze woły
TTITLE13=Przyjechały chłopy, stanęły u sopy
TTITLE14=W Betlejem przy drodze
TTITLE15=Cyja to rolinka
TTITLE16=Zagrzmiało, runęło w Betlejem ziemia
TTITLE17=Bracia i siostry, tego ziecora
TTITLE18=Cztery lata wołkim pasał
TTITLE19=Pójdziemy bracia w drogę z wiecora
TTITLE20=Wigilijna
TTITLE21=Anioł się zwiastuje owczarzyczkom
TTITLE22=Święty Szczepan po kolędzie gdy chodził
TTITLE23=Płynie nam rzeczejka
TTITLE24=Trząsł ci Jasieńko na Gody jabłka
TTITLE25=Panie gospodarzu masz w domu gości
TTITLE26=Szczodry wieczór gospodarzu
TTITLE27=Hej, kolęda deska
TTITLE28=Oj czy jest, czy jest gospodarz w domu
TTITLE29=Leci konisio wyrywający
TTITLE30=Hej, na mojem Jasiejku kosulecka lniana
TTITLE31=Żywiecka kolęda
TTITLE32=Wybieraj się nadobna Maniusiu powoli
TTITLE33=Pasterze bieżali
TTITLE34=Za koląde dziękujemy
TTITLE35=Idzie hyr, idzie hyr dziedziną
TTITLE36=Dzisiaj w Betlejem
EXTD=
EXTT0=
EXTT1=
EXTT2=
EXTT3=
EXTT4=
EXTT5=
EXTT6=
EXTT7=
EXTT8=
EXTT9=
EXTT10=
EXTT11=
EXTT12=
EXTT13=
EXTT14=
EXTT15=
EXTT16=
EXTT17=
EXTT18=
EXTT19=
EXTT20=
EXTT21=
EXTT22=
EXTT23=
EXTT24=
EXTT25=
EXTT26=
EXTT27=
EXTT28=
EXTT29=
EXTT30=
EXTT31=
EXTT32=
EXTT33=
EXTT34=
EXTT35=
EXTT36=
PLAYORDER=
